<svg version="1.1" xmlns="http://www.w3.org/2000/svg" xmlns:xlink="http://www.w3.org/1999/xlink" x="0px" y="0px"
	 viewBox="0 0 496.016 496.016" style="enable-background:new 0 0 496.016 496.016;" xml:space="preserve">
<path style="fill:#FFA64D;" d="M328,224.008v-32h-18.096c-1.512-5.856-3.816-11.376-6.816-16.464l12.792-12.792l-22.624-22.624
	l-12.792,12.792c-5.08-3-10.608-5.304-16.464-6.816v-18.096h-32v18.096c-5.856,1.512-11.376,3.816-16.464,6.816l-12.792-12.792
	l-22.624,22.624l12.792,12.792c-3,5.08-5.304,10.608-6.816,16.464H168v32h18.096c1.512,5.856,3.816,11.376,6.816,16.464
	l-12.792,12.792l22.624,22.624l12.792-12.792c5.08,3,10.608,5.304,16.464,6.816v18.096h32v-18.096
	c5.856-1.512,11.376-3.816,16.464-6.816l12.792,12.792l22.624-22.624l-12.792-12.792c3-5.08,5.304-10.608,6.816-16.464L328,224.008
	L328,224.008z"/>
	<path style="fill:#fff;" d="M248,176.008c-17.648,0-32,14.352-32,32s14.352,32,32,32s32-14.352,32-32
		S265.648,176.008,248,176.008z M248,224.008c-8.824,0-16-7.176-16-16s7.176-16,16-16s16,7.176,16,16S256.824,224.008,248,224.008z"
		/>
	<path style="fill:#fff;" d="M472,184.008c-10.416,0-19.216,6.712-22.528,16h-81.88c-1.064-16.024-5.264-31.16-12.032-44.864
		l36.336-20.984c4.368,3.704,9.832,5.84,15.48,5.84c4.072,0,8.192-1.032,11.96-3.208c11.464-6.616,15.4-21.328,8.784-32.792
		c-6.624-11.456-21.328-15.408-32.784-8.784c-9.016,5.208-13.28,15.416-11.504,25.12l-36.192,20.896
		c-8.736-13-19.944-24.192-32.952-32.92l34.152-60.624c1.056,0.144,2.08,0.32,3.16,0.32c13.232,0,24-10.768,24-24s-10.768-24-24-24
		s-24,10.768-24,24c0,6.36,2.528,12.12,6.584,16.416l-33.792,59.984c-13.688-6.744-28.8-10.936-44.792-12V46.536
		c9.288-3.312,16-12.112,16-22.528c0-13.232-10.768-24-24-24s-24,10.768-24,24c0,10.416,6.712,19.216,16,22.528v41.88
		c-15.992,1.064-31.112,5.256-44.792,12l-33.792-59.984C165.472,36.128,168,30.368,168,24.008c0-13.232-10.768-24-24-24
		s-24,10.768-24,24s10.768,24,24,24c1.08,0,2.104-0.176,3.144-0.32l34.152,60.624c-13,8.728-24.208,19.92-32.952,32.92
		l-36.192-20.896c1.776-9.704-2.488-19.912-11.504-25.12C89.176,88.592,74.48,92.544,67.856,104
		c-6.616,11.464-2.672,26.168,8.792,32.784c3.768,2.176,7.888,3.208,11.96,3.208c5.656,0,11.112-2.136,15.48-5.84l36.336,20.984
		c-6.76,13.704-10.968,28.84-12.032,44.864H46.528c-3.312-9.28-12.112-15.992-22.528-15.992c-13.232,0-24,10.768-24,24
		s10.768,24,24,24c10.416,0,19.216-6.712,22.528-16h81.752c1.064,15.76,5.288,30.976,12.152,44.864l-36.272,20.944
		c-7.512-6.384-18.48-7.8-27.512-2.6c-11.456,6.624-15.392,21.328-8.784,32.792C72.304,319.704,80.384,324,88.696,324
		c4.064,0,8.184-1.032,11.952-3.2h0.008c9.016-5.216,13.28-15.416,11.504-25.12l36.304-20.96
		c9.208,13.72,21.216,25.632,35.544,34.688v18.6h-16v16h16v16h-16v16h16v32h128v-32h16v-16h-16v-16h16v-16h-16v-18.6
		c14.328-9.056,26.328-20.968,35.544-34.688l36.304,20.96c-1.776,9.704,2.488,19.912,11.512,25.12c3.768,2.168,7.888,3.2,11.952,3.2
		c8.304,0,16.392-4.304,20.832-11.992c6.608-11.464,2.664-26.168-8.784-32.792h-0.008c-9.024-5.192-19.992-3.784-27.504,2.6
		l-36.272-20.944c6.856-13.888,11.08-29.104,12.152-44.864h81.752c3.312,9.288,12.112,16,22.528,16c13.232,0,24-10.768,24-24
		S485.232,184.008,472,184.008z M403.344,109.08c1.256-0.728,2.632-1.072,3.992-1.072c2.768,0,5.464,1.432,6.944,4
		c2.208,3.824,0.888,8.72-2.928,10.928c-3.816,2.192-8.728,0.896-10.928-2.928C398.216,116.184,399.528,111.288,403.344,109.08z
		 M352,16.008c4.408,0,8,3.592,8,8s-3.592,8-8,8s-8-3.592-8-8S347.592,16.008,352,16.008z M136,24.008c0-4.408,3.592-8,8-8
		s8,3.592,8,8s-3.592,8-8,8S136,28.416,136,24.008z M95.576,120.008c-2.208,3.824-7.12,5.12-10.928,2.928
		c-3.824-2.2-5.136-7.104-2.936-10.92c1.488-2.568,4.176-4,6.944-4c1.36,0,2.728,0.344,3.992,1.072
		C96.472,111.288,97.784,116.184,95.576,120.008z M92.648,306.936c-3.808,2.208-8.712,0.88-10.928-2.928
		c-2.208-3.824-0.888-8.728,2.928-10.928c1.256-0.728,2.632-1.072,3.992-1.072c2.768,0,5.464,1.44,6.944,4
		C97.784,299.832,96.472,304.736,92.648,306.936z M400.424,296.008c1.48-2.56,4.168-4,6.944-4c1.352,0,2.728,0.344,3.984,1.072
		c3.824,2.2,5.144,7.112,2.936,10.928s-7.112,5.144-10.928,2.928C399.528,304.736,398.216,299.832,400.424,296.008z M248,16.008
		c4.408,0,8,3.592,8,8s-3.592,8-8,8s-8-3.592-8-8S243.592,16.008,248,16.008z M24,216.008c-4.408,0-8-3.592-8-8s3.592-8,8-8
		s8,3.592,8,8S28.408,216.008,24,216.008z M296,360.008h-16v16h16v16h-96v-16h64v-16h-64v-16h96V360.008z M299.992,297.976
		L296,300.288v27.72h-96v-27.72l-3.992-2.312C163.928,279.4,144,244.928,144,208.008c0-57.344,46.656-104,104-104
		s104,46.656,104,104C352,244.928,332.072,279.4,299.992,297.976z M472,216.008c-4.408,0-8-3.592-8-8s3.592-8,8-8s8,3.592,8,8
		S476.408,216.008,472,216.008z"/>
	<rect x="240" y="424.008" style="fill:#fff;" width="16" height="40"/>
	<rect x="184" y="424.008" style="fill:#fff;" width="16" height="24"/>
	<rect x="184" y="464.008" style="fill:#fff;" width="16" height="16"/>
	<rect x="296" y="424.008" style="fill:#fff;" width="16" height="24"/>
	<rect x="296" y="464.008" style="fill:#fff;" width="16" height="16"/>
	<rect x="240" y="480.008" style="fill:#fff;" width="16" height="16"/>
</svg>
